<svg width="40" height="35" viewBox="0 0 40 35" fill="none" xmlns="http://www.w3.org/2000/svg">
<path d="M7.20009 20.0222L20.0001 6.77777L32.8001 20.0222C33.1478 20.3832 33.3379 20.8675 33.3285 21.3687C33.3191 21.8698 33.1111 22.3467 32.7501 22.6944C32.3891 23.0422 31.9048 23.2322 31.4036 23.2229C30.9025 23.2135 30.4256 23.0054 30.0779 22.6444L20.0001 12.2111L9.9112 22.6444C9.56347 23.0054 9.08659 23.2135 8.58545 23.2229C8.08431 23.2322 7.59997 23.0422 7.23898 22.6944C6.87799 22.3467 6.66992 21.8698 6.66054 21.3687C6.65117 20.8675 6.84125 20.3832 7.18898 20.0222L7.20009 20.0222Z" fill="#343839"/>
</svg>
