<svg width="40" height="40" viewBox="0 0 40 40" fill="none" xmlns="http://www.w3.org/2000/svg">
<path d="M21.5667 19.9999L30.7778 10.7888C30.9598 10.5763 31.0549 10.3028 31.0441 10.0232C31.0333 9.74357 30.9174 9.4783 30.7195 9.28042C30.5217 9.08254 30.2564 8.96661 29.9767 8.95581C29.6971 8.94501 29.4237 9.04013 29.2111 9.22216L20 18.4333L10.7889 9.21105C10.5797 9.00182 10.2959 8.88428 10 8.88428C9.70413 8.88428 9.42036 9.00182 9.21114 9.21105C9.00191 9.42027 8.88437 9.70404 8.88437 9.99993C8.88437 10.2958 9.00191 10.5796 9.21114 10.7888L18.4334 19.9999L9.21114 29.211C9.09482 29.3107 9.00036 29.4332 8.93366 29.5711C8.86697 29.7089 8.82949 29.8591 8.82358 30.0121C8.81767 30.1651 8.84346 30.3177 8.89932 30.4603C8.95518 30.6029 9.03991 30.7324 9.14819 30.8407C9.25647 30.9489 9.38597 31.0337 9.52855 31.0895C9.67114 31.1454 9.82373 31.1712 9.97675 31.1653C10.1298 31.1594 10.2799 31.1219 10.4178 31.0552C10.5556 30.9885 10.6782 30.894 10.7778 30.7777L20 21.5666L29.2111 30.7777C29.4237 30.9597 29.6971 31.0549 29.9767 31.0441C30.2564 31.0333 30.5217 30.9173 30.7195 30.7194C30.9174 30.5216 31.0333 30.2563 31.0441 29.9767C31.0549 29.697 30.9598 29.4236 30.7778 29.211L21.5667 19.9999Z" fill="black"/>
</svg>
