<svg width="32" height="29" viewBox="0 0 32 29" fill="none" xmlns="http://www.w3.org/2000/svg">
<path d="M31 0H1C0.734784 0 0.48043 0.105357 0.292893 0.292893C0.105357 0.48043 0 0.734784 0 1V2.67C0.000186982 2.90619 0.047114 3.14 0.138077 3.35797C0.22904 3.57594 0.362239 3.77375 0.53 3.94L12 15.58V25.78L14 26.54V15C14.0008 14.8684 13.9755 14.7379 13.9258 14.6161C13.876 14.4943 13.8027 14.3834 13.71 14.29L2 2.59V2H30V2.61L18.33 14.29C18.2301 14.3801 18.1493 14.4894 18.0926 14.6114C18.0359 14.7334 18.0044 14.8655 18 15V28.21L20 29V15.5L31.47 4C31.6405 3.82953 31.7752 3.62672 31.8662 3.40348C31.9572 3.18024 32.0027 2.94106 32 2.7V1C32 0.734784 31.8946 0.48043 31.7071 0.292893C31.5196 0.105357 31.2652 0 31 0Z" fill="black"/>
</svg>
