<svg width="36" height="36" viewBox="0 0 36 36" fill="none" xmlns="http://www.w3.org/2000/svg">
<path d="M18 3.24337C22.8061 3.24337 23.3754 3.26166 25.2734 3.34814C27.0284 3.4283 27.9816 3.7215 28.6159 3.96802C29.456 4.29455 30.0556 4.68464 30.6855 5.3145C31.3155 5.94436 31.7055 6.54398 32.032 7.38408C32.2785 8.01844 32.5717 8.97159 32.6519 10.7265C32.7383 12.6246 32.7566 13.1939 32.7566 18C32.7566 22.8063 32.7383 23.3755 32.6519 25.2735C32.5717 27.0285 32.2785 27.9816 32.032 28.6159C31.7055 29.456 31.3154 30.0558 30.6855 30.6856C30.0556 31.3155 29.456 31.7056 28.6159 32.032C27.9816 32.2785 27.0284 32.5718 25.2734 32.6519C23.3757 32.7385 22.8064 32.7568 18 32.7568C13.1934 32.7568 12.6242 32.7385 10.7265 32.6519C8.97145 32.5717 8.01844 32.2785 7.38408 32.032C6.54398 31.7056 5.94422 31.3155 5.31436 30.6856C4.6845 30.0556 4.29441 29.456 3.96802 28.6159C3.7215 27.9817 3.42816 27.0285 3.34814 25.2735C3.26152 23.3755 3.24323 22.8063 3.24323 18C3.24323 13.1939 3.26152 12.6246 3.34814 10.7266C3.4283 8.97159 3.7215 8.01844 3.96802 7.38408C4.29441 6.54398 4.6845 5.94436 5.31436 5.3145C5.94436 4.6845 6.54398 4.29455 7.38408 3.96802C8.0183 3.7215 8.97145 3.4283 10.7265 3.34814C12.6245 3.26166 13.1937 3.24337 18 3.24337ZM18 0C13.1115 0 12.4985 0.0206719 10.5787 0.108281C8.66264 0.19575 7.35413 0.500062 6.2093 0.945C5.02552 1.40498 4.02173 2.0205 3.02105 3.02119C2.02036 4.02187 1.40498 5.02566 0.945 6.2093C0.499922 7.35427 0.19575 8.66278 0.108281 10.5787C0.0206719 12.4985 0 13.1115 0 18C0 22.8885 0.0206719 23.5015 0.108281 25.4213C0.19575 27.3374 0.499922 28.6459 0.945 29.7907C1.40484 30.9743 2.02036 31.9783 3.02105 32.979C4.02173 33.9796 5.02552 34.595 6.2093 35.055C7.35427 35.5001 8.66264 35.8042 10.5785 35.8917C12.4985 35.9793 13.1115 36 18 36C22.8885 36 23.5015 35.9793 25.4213 35.8917C27.3372 35.8042 28.6457 35.5001 29.7906 35.055C30.9743 34.5952 31.9781 33.9796 32.9788 32.979C33.9795 31.9783 34.595 30.9745 35.055 29.7907C35.4999 28.6457 35.8042 27.3374 35.8917 25.4215C35.9793 23.5015 36 22.8885 36 18C36 13.1115 35.9793 12.4985 35.8917 10.5787C35.8042 8.66278 35.4999 7.35427 35.055 6.20944C34.595 5.02566 33.9795 4.02187 32.9788 3.02119C31.9781 2.0205 30.9743 1.40484 29.7907 0.945C28.6457 0.500062 27.3372 0.19575 25.4213 0.108281C23.5015 0.0206719 22.8885 0 18 0ZM18 8.75672C12.895 8.75672 8.75672 12.8953 8.75672 18C8.75672 23.105 12.895 27.2433 18 27.2433C23.1048 27.2433 27.2433 23.105 27.2433 18C27.2433 12.8952 23.1048 8.75672 18 8.75672ZM18 24C14.6863 24 12 21.3137 12 18C12 14.6863 14.6863 12 18 12C21.3137 12 24 14.6863 24 18C24 21.3137 21.3137 24 18 24ZM29.7683 8.39152C29.7683 9.58458 28.8014 10.5515 27.6083 10.5515C26.4154 10.5515 25.4483 9.58458 25.4483 8.39152C25.4483 7.19859 26.4154 6.23152 27.6083 6.23152C28.8014 6.23152 29.7683 7.19859 29.7683 8.39152Z" fill="#0A0A08"/>
</svg>
