<svg width="64" height="46" viewBox="0 0 64 46" fill="none" xmlns="http://www.w3.org/2000/svg">
<path d="M63.653 9.67226V36.6493C63.653 37.5856 62.893 38.3629 61.9563 38.3629C61.0196 38.3629 60.2596 37.6033 60.2596 36.6493V9.67226C60.2596 6.49226 57.6791 3.89526 54.4977 3.89526C51.3163 3.89526 48.7358 6.49226 48.7358 9.67226V36.6493C48.7358 41.7196 44.6177 45.8359 39.5628 45.8359C34.5079 45.8359 30.3898 41.7196 30.3898 36.6493V9.67226C30.3898 6.49226 27.8093 3.89526 24.6279 3.89526C21.4465 3.89526 18.8661 6.49226 18.8661 9.67226V36.6493C18.8661 41.7196 14.7479 45.8359 9.69304 45.8359C4.63816 45.8359 0.52002 41.7196 0.52002 36.6493V9.67226C0.52002 8.73593 1.28002 7.95859 2.21676 7.95859C3.15351 7.95859 3.91351 8.71826 3.91351 9.67226V36.6493C3.91351 39.8293 6.49397 42.4263 9.67537 42.4263C12.8568 42.4263 15.4372 39.8293 15.4372 36.6493V9.67226C15.4372 4.60193 19.5554 0.485596 24.6103 0.485596C29.6651 0.485596 33.7833 4.60193 33.7833 9.67226V36.6493C33.7833 39.8293 36.3637 42.4263 39.5451 42.4263C42.7265 42.4263 45.307 39.8293 45.307 36.6493V9.67226C45.307 4.60193 49.4251 0.485596 54.48 0.485596C59.5349 0.485596 63.653 4.6196 63.653 9.67226Z" fill="#020203"/>
</svg>
