<svg width="40" height="40" viewBox="0 0 40 40" fill="none" xmlns="http://www.w3.org/2000/svg">
<path d="M18.1444 5.61111C20.5512 5.60891 22.9046 6.3206 24.9069 7.65616C26.9091 8.99171 28.4703 10.8911 29.3929 13.1141C30.3154 15.3371 30.5579 17.7837 30.0898 20.1446C29.6216 22.5054 28.4637 24.6743 26.7626 26.377C25.0615 28.0796 22.8936 29.2395 20.5332 29.7098C18.1728 30.1802 15.7259 29.9399 13.5021 29.0194C11.2783 28.0988 9.37746 26.5394 8.04007 24.5384C6.70269 22.5373 5.98885 20.1846 5.98885 17.7778C6.00344 14.5574 7.28844 11.4729 9.56458 9.19468C11.8407 6.91646 14.924 5.62864 18.1444 5.61111ZM18.1444 3.33333C15.2876 3.33333 12.4949 4.18048 10.1195 5.76766C7.74412 7.35483 5.89274 9.61075 4.79948 12.2501C3.70621 14.8895 3.42016 17.7938 3.9775 20.5957C4.53485 23.3977 5.91055 25.9714 7.93064 27.9915C9.95073 30.0116 12.5245 31.3873 15.3264 31.9447C18.1284 32.502 21.0327 32.216 23.6721 31.1227C26.3114 30.0294 28.5673 28.1781 30.1545 25.8027C31.7417 23.4273 32.5888 20.6346 32.5888 17.7778C32.5888 13.9469 31.067 10.2729 28.3582 7.56401C25.6493 4.85515 21.9753 3.33333 18.1444 3.33333Z" fill="black"/>
<path d="M38.889 36.9889L30.7001 28.7444L29.1223 30.3111L37.3112 38.5556C37.4141 38.6592 37.5363 38.7415 37.671 38.7978C37.8057 38.8542 37.9502 38.8834 38.0962 38.8839C38.2422 38.8845 38.3868 38.8562 38.5219 38.8008C38.657 38.7454 38.7798 38.664 38.8834 38.5611C38.987 38.4582 39.0693 38.336 39.1257 38.2013C39.182 38.0666 39.2113 37.9221 39.2118 37.7761C39.2123 37.6302 39.1841 37.4855 39.1287 37.3504C39.0733 37.2153 38.9919 37.0925 38.889 36.9889Z" fill="black"/>
</svg>
