<svg width="32" height="36" viewBox="0 0 32 36" fill="none" xmlns="http://www.w3.org/2000/svg">
<path d="M23.7777 11.3334V8.05561C23.7777 7.03422 23.5765 6.02283 23.1856 5.07918C22.7948 4.13554 22.2218 3.27812 21.4996 2.55589C20.7774 1.83366 19.92 1.26075 18.9763 0.86988C18.0327 0.47901 17.0213 0.277832 15.9999 0.277832C14.9785 0.277832 13.9671 0.47901 13.0235 0.86988C12.0798 1.26075 11.2224 1.83366 10.5002 2.55589C9.77794 3.27812 9.20503 4.13554 8.81416 5.07918C8.42329 6.02283 8.22211 7.03422 8.22211 8.05561V15.8334C8.22211 16.1281 8.33918 16.4107 8.54755 16.6191C8.75593 16.8274 9.03854 16.9445 9.33323 16.9445C9.62791 16.9445 9.91053 16.8274 10.1189 16.6191C10.3273 16.4107 10.4443 16.1281 10.4443 15.8334V13.5556H19.3332V11.3334H10.4443V8.05561C10.4443 6.58218 11.0297 5.16911 12.0715 4.12724C13.1134 3.08537 14.5265 2.50005 15.9999 2.50005C17.4733 2.50005 18.8864 3.08537 19.9283 4.12724C20.9701 5.16911 21.5554 6.58218 21.5554 8.05561V15.7778C21.5554 16.0725 21.6725 16.3551 21.8809 16.5635C22.0893 16.7719 22.3719 16.8889 22.6666 16.8889C22.9612 16.8889 23.2439 16.7719 23.4522 16.5635C23.6606 16.3551 23.7777 16.0725 23.7777 15.7778V13.5556H29.3332V33.5556H2.66656V13.5556H5.99989V11.3334H0.444336V33.6556C0.444336 34.2185 0.667926 34.7583 1.06592 35.1562C1.46391 35.5542 2.00371 35.7778 2.56656 35.7778H29.4332C29.9961 35.7778 30.5359 35.5542 30.9339 35.1562C31.3319 34.7583 31.5554 34.2185 31.5554 33.6556V11.3334H23.7777Z" fill="black"/>
</svg>
