<svg width="36" height="36" viewBox="0 0 36 36" fill="none" xmlns="http://www.w3.org/2000/svg">
<path d="M13.3301 32C14.5727 32 15.5801 30.9926 15.5801 29.75C15.5801 28.5074 14.5727 27.5 13.3301 27.5C12.0874 27.5 11.0801 28.5074 11.0801 29.75C11.0801 30.9926 12.0874 32 13.3301 32Z" fill="black"/>
<path d="M27 32C28.2426 32 29.25 30.9926 29.25 29.75C29.25 28.5074 28.2426 27.5 27 27.5C25.7574 27.5 24.75 28.5074 24.75 29.75C24.75 30.9926 25.7574 32 27 32Z" fill="black"/>
<path d="M33.08 5.36999C32.9869 5.25527 32.8696 5.1626 32.7365 5.09862C32.6034 5.03465 32.4577 5.00096 32.31 4.99999H11.49L12.14 6.99999H31L28.33 19H13.33L8.75999 4.52999C8.71056 4.37645 8.62472 4.23714 8.50979 4.12396C8.39487 4.01077 8.25427 3.92707 8.09999 3.87999L3.99999 2.61999C3.87392 2.58125 3.74145 2.56772 3.61016 2.58017C3.47886 2.59262 3.3513 2.63082 3.23476 2.69257C2.9994 2.81728 2.82323 3.03038 2.74499 3.28499C2.66675 3.53959 2.69286 3.81486 2.81757 4.05021C2.94228 4.28557 3.15538 4.46175 3.40999 4.53999L6.99999 5.63999L11.59 20.14L9.94999 21.48L9.81999 21.61C9.41432 22.0775 9.18439 22.6718 9.16979 23.2906C9.15518 23.9094 9.35683 24.5139 9.73999 25C10.0125 25.3314 10.3589 25.5945 10.7513 25.7682C11.1438 25.9418 11.5714 26.0212 12 26H28.69C28.9552 26 29.2096 25.8946 29.3971 25.7071C29.5846 25.5196 29.69 25.2652 29.69 25C29.69 24.7348 29.5846 24.4804 29.3971 24.2929C29.2096 24.1053 28.9552 24 28.69 24H11.84C11.7248 23.9961 11.6126 23.9625 11.5142 23.9025C11.4159 23.8426 11.3346 23.7583 11.2783 23.6577C11.222 23.5572 11.1926 23.4439 11.1929 23.3286C11.1932 23.2134 11.2232 23.1002 11.28 23L13.69 21H29.13C29.3611 21.0056 29.5871 20.931 29.7695 20.7888C29.9518 20.6466 30.0792 20.4456 30.13 20.22L33.3 6.21999C33.3304 6.0709 33.3264 5.91685 33.2883 5.76955C33.2501 5.62225 33.1789 5.4856 33.08 5.36999V5.36999Z" fill="black"/>
</svg>
