<svg width="304" height="106" viewBox="0 0 304 106" fill="none" xmlns="http://www.w3.org/2000/svg">
<path d="M151.894 58.989C151.894 63.5823 150.551 67.1157 147.846 69.589C145.142 72.0623 141.272 73.299 136.217 73.299C132.682 73.299 129.642 72.6453 127.044 71.3557C124.463 70.066 122.819 67.8753 122.819 67.8753C122.059 66.8153 122.112 65.2253 122.996 64.289L125.824 61.109C126.708 60.1727 127.945 60.2786 128.581 61.3386C128.581 61.3386 129.165 62.3456 130.879 63.4057C132.523 64.4657 134.343 64.9957 136.287 64.9957C138.285 64.9957 139.752 64.5187 140.759 63.6353C141.766 62.699 142.279 61.3917 142.279 59.625C142.279 58.088 141.572 56.6746 140.229 55.438C138.886 54.2013 136.464 52.6113 133 50.721C129.235 48.601 126.531 46.481 125.011 44.308C123.491 42.135 122.66 39.591 122.66 36.6583C122.66 32.542 124.004 29.2383 126.708 26.818C129.412 24.3976 133.053 23.161 137.701 23.161C140.529 23.161 142.986 23.691 145.107 24.751C147.228 25.811 148.925 27.7013 148.925 27.7013C149.755 28.6376 149.755 30.2276 148.872 31.1816L146.291 34.0083C145.407 34.9446 144.117 34.8916 143.357 33.8316C143.357 33.8316 143.127 33.4783 141.766 32.7186C140.423 31.8883 139.009 31.482 137.595 31.482C135.952 31.482 134.591 31.8883 133.654 32.7716C132.646 33.655 132.187 34.715 132.187 35.9516C132.187 38.478 137.118 42.082 137.118 42.082C138.179 42.8417 139.345 43.619 139.769 43.8486C140.176 44.0783 141.819 45.0853 142.951 45.739C142.951 45.739 147.829 48.919 149.472 51.092C151.01 53.2826 151.894 55.9327 151.894 58.989Z" fill="#020203"/>
<path d="M166.528 69.9424C166.528 71.232 165.468 72.292 164.178 72.292H159.476C158.186 72.292 157.126 71.232 157.126 69.9424V26.4824C157.126 25.1927 158.186 24.1327 159.476 24.1327H164.178C165.468 24.1327 166.528 25.1927 166.528 26.4824V69.9424Z" fill="#020203"/>
<path d="M214.956 69.9424C214.956 71.232 213.896 72.292 212.606 72.292H208.081C206.791 72.292 205.147 71.4087 204.44 70.3487L184.698 41.7287C183.991 40.6687 183.354 40.8454 183.354 42.135V69.9247C183.354 71.2144 182.294 72.2744 181.004 72.2744H176.479C175.189 72.2744 174.128 71.2144 174.128 69.9247V26.4647C174.128 25.175 175.189 24.115 176.479 24.115H181.004C182.294 24.115 183.938 24.9984 184.645 26.0584L204.334 54.5547C205.041 55.6147 205.677 55.438 205.677 54.1484V26.4824C205.677 25.1927 206.738 24.1327 208.028 24.1327H212.553C213.843 24.1327 214.903 25.1927 214.903 26.4824V69.9424H214.956Z" fill="#020203"/>
<path d="M257.269 51.2157C257.269 52.5053 257.145 54.5723 256.968 55.862C256.968 55.862 255.802 64.819 252.744 68.1757C249.74 71.5853 245.392 73.246 239.753 73.246C234.168 73.246 229.873 71.4793 226.816 67.999C223.758 64.5187 222.521 55.809 222.521 55.809C222.344 54.5193 222.22 52.4523 222.22 51.1627V26.4293C222.22 25.1397 223.281 24.0797 224.571 24.0797H229.573C230.863 24.0797 231.924 25.1397 231.924 26.4293V52.8057C231.924 54.0953 232.047 56.1623 232.224 57.452C232.224 57.452 232.631 60.579 233.921 62.169C235.264 63.759 237.208 64.5893 239.736 64.5893C242.387 64.5893 244.384 63.8297 245.674 62.2397C246.965 60.7027 247.318 57.4697 247.318 57.4697C247.495 56.18 247.619 54.113 247.619 52.8233V26.5C247.619 25.2103 248.679 24.1503 249.969 24.1503H254.971C256.261 24.1503 257.322 25.2103 257.322 26.5V51.2333H257.269V51.2157Z" fill="#020203"/>
<path d="M292.017 58.989C292.017 63.5823 290.673 67.1157 287.969 69.589C285.265 72.0623 281.377 73.299 276.339 73.299C272.805 73.299 269.747 72.6453 267.166 71.3557C264.586 70.066 262.942 67.8753 262.942 67.8753C262.182 66.8153 262.235 65.2253 263.119 64.289L265.947 61.109C266.831 60.1727 268.068 60.2786 268.704 61.3386C268.704 61.3386 269.287 62.3456 271.002 63.4057C272.646 64.4657 274.466 64.9957 276.41 64.9957C278.407 64.9957 279.874 64.5187 280.882 63.6353C281.889 62.699 282.419 61.3917 282.419 59.625C282.419 58.088 281.713 56.6746 280.369 55.438C279.026 54.2013 276.605 52.6113 273.14 50.721C269.376 48.601 266.672 46.481 265.152 44.308C263.632 42.135 262.801 39.591 262.801 36.6583C262.801 32.542 264.144 29.2383 266.848 26.818C269.553 24.3976 273.193 23.161 277.842 23.161C280.67 23.161 283.126 23.691 285.247 24.751C287.368 25.811 289.065 27.7013 289.065 27.7013C289.896 28.6376 289.896 30.2276 289.012 31.1816L286.432 34.0083C285.548 34.9446 284.258 34.8916 283.498 33.8316C283.498 33.8316 283.268 33.4783 281.907 32.7186C280.564 31.8883 279.15 31.482 277.736 31.482C276.092 31.482 274.731 31.8883 273.794 32.7716C272.805 33.655 272.327 34.715 272.327 35.9516C272.327 38.478 277.259 42.082 277.259 42.082C278.319 42.8417 279.486 43.619 279.91 43.8486C280.316 44.0783 281.96 45.0853 283.091 45.739C283.091 45.739 287.969 48.919 289.613 51.092C291.186 53.2826 292.017 55.9327 292.017 58.989Z" fill="#020203"/>
<path d="M52.0865 104.339C80.8428 104.339 104.155 80.984 104.155 52.1697C104.155 23.3553 80.8428 0 52.0865 0C23.3302 0 0 23.3553 0 52.1697C0 80.984 23.3126 104.339 52.0865 104.339Z" fill="white"/>
<path d="M83.6531 38.6723V65.6493C83.6531 66.5856 82.8931 67.363 81.9564 67.363C81.0196 67.363 80.2596 66.6033 80.2596 65.6493V38.6723C80.2596 35.4923 77.6792 32.8953 74.4978 32.8953C71.3164 32.8953 68.7359 35.4923 68.7359 38.6723V65.6493C68.7359 70.7196 64.6178 74.836 59.5629 74.836C54.508 74.836 50.3899 70.7196 50.3899 65.6493V38.6723C50.3899 35.4923 47.8094 32.8953 44.628 32.8953C41.4466 32.8953 38.8661 35.4923 38.8661 38.6723V65.6493C38.8661 70.7196 34.748 74.836 29.6931 74.836C24.6382 74.836 20.5201 70.7196 20.5201 65.6493V38.6723C20.5201 37.736 21.2801 36.9586 22.2168 36.9586C23.1536 36.9586 23.9136 37.7183 23.9136 38.6723V65.6493C23.9136 68.8293 26.494 71.4263 29.6754 71.4263C32.8568 71.4263 35.4373 68.8293 35.4373 65.6493V38.6723C35.4373 33.602 39.5554 29.4856 44.6103 29.4856C49.6652 29.4856 53.7833 33.602 53.7833 38.6723V65.6493C53.7833 68.8293 56.3638 71.4263 59.5452 71.4263C62.7266 71.4263 65.3071 68.8293 65.3071 65.6493V38.6723C65.3071 33.602 69.4252 29.4856 74.4801 29.4856C79.535 29.4856 83.6531 33.6196 83.6531 38.6723Z" fill="#020203"/>
<path d="M130.048 91.4426C130.048 92.4496 129.677 93.227 128.953 93.7746C128.228 94.34 127.238 94.605 126.001 94.605C124.658 94.605 123.615 94.4283 122.89 94.0926V92.8206C123.35 93.015 123.862 93.174 124.41 93.28C124.958 93.386 125.506 93.4566 126.036 93.4566C126.92 93.4566 127.574 93.2976 128.016 92.962C128.458 92.6263 128.687 92.167 128.687 91.5663C128.687 91.1776 128.599 90.8596 128.44 90.6123C128.281 90.365 128.016 90.1176 127.645 89.9056C127.274 89.6936 126.708 89.4463 125.966 89.1813C124.905 88.8103 124.145 88.351 123.703 87.8386C123.261 87.3263 123.032 86.6373 123.032 85.807C123.032 84.9236 123.367 84.2346 124.021 83.7223C124.675 83.21 125.541 82.945 126.637 82.945C127.768 82.945 128.811 83.157 129.748 83.5633L129.341 84.7116C128.405 84.323 127.486 84.1286 126.602 84.1286C125.895 84.1286 125.365 84.2876 124.958 84.5703C124.569 84.8706 124.375 85.2946 124.375 85.8246C124.375 86.2133 124.446 86.549 124.587 86.7963C124.728 87.0436 124.976 87.2733 125.312 87.4853C125.665 87.6973 126.195 87.927 126.902 88.1743C128.087 88.5983 128.917 89.0576 129.359 89.5346C129.819 90.0293 130.048 90.6653 130.048 91.4426ZM143.746 94.4636H142.191L138.055 88.9516L136.871 90.0116V94.4636H135.545V83.1216H136.871V88.7573L142.014 83.1216H143.569L139.009 88.0506L143.746 94.4636ZM155.641 94.4636L154.227 90.8596H149.667L148.271 94.4636H146.927L151.417 83.0686H152.53L157.002 94.4636H155.641ZM153.803 89.6583L152.477 86.1426C152.3 85.701 152.124 85.1533 151.947 84.4996C151.841 84.9943 151.664 85.542 151.452 86.1426L150.109 89.6583H153.803ZM165.238 94.4636H163.913V84.2876H160.325V83.1216H168.844V84.2876H165.256V94.4636H165.238ZM180.067 94.4636H173.74V83.1216H180.067V84.2876H175.065V87.9446H179.767V89.1106H175.065V93.28H180.067V94.4636ZM185.776 83.104H188.993C190.495 83.104 191.591 83.3336 192.262 83.7753C192.934 84.217 193.27 84.9413 193.27 85.913C193.27 86.5843 193.075 87.1496 192.704 87.5736C192.333 88.0153 191.785 88.298 191.06 88.4216V88.4923C192.775 88.7926 193.641 89.6936 193.641 91.213C193.641 92.22 193.305 93.015 192.616 93.5803C191.927 94.1456 190.972 94.4283 189.735 94.4283H185.776V83.104ZM187.084 87.9623H189.258C190.194 87.9623 190.866 87.821 191.273 87.5206C191.679 87.2203 191.891 86.7256 191.891 86.0366C191.891 85.4006 191.661 84.9413 191.202 84.6586C190.742 84.376 190.018 84.2346 189.028 84.2346H187.084V87.9623ZM187.084 89.093V93.333H189.452C190.371 93.333 191.06 93.1563 191.52 92.803C191.98 92.4496 192.209 91.8843 192.209 91.1423C192.209 90.4356 191.98 89.9233 191.502 89.5876C191.025 89.252 190.318 89.093 189.346 89.093H187.084ZM209.124 88.775C209.124 90.5946 208.664 92.0256 207.745 93.068C206.826 94.1103 205.554 94.6226 203.91 94.6226C202.231 94.6226 200.94 94.1103 200.039 93.0856C199.138 92.061 198.678 90.6123 198.678 88.7573C198.678 86.9023 199.138 85.4713 200.039 84.4643C200.94 83.4396 202.248 82.9273 203.927 82.9273C205.554 82.9273 206.826 83.4396 207.745 84.482C208.664 85.5243 209.124 86.9376 209.124 88.775ZM200.074 88.775C200.074 90.312 200.393 91.478 201.047 92.273C201.7 93.068 202.655 93.4566 203.91 93.4566C205.165 93.4566 206.119 93.068 206.755 92.273C207.392 91.478 207.71 90.312 207.71 88.775C207.71 87.2556 207.392 86.0896 206.755 85.3123C206.119 84.5173 205.165 84.1286 203.927 84.1286C202.673 84.1286 201.718 84.535 201.047 85.33C200.393 86.0896 200.074 87.2556 200.074 88.775ZM221.973 94.4636L220.559 90.8596H215.999L214.603 94.4636H213.26L217.749 83.0686H218.862L223.334 94.4636H221.973ZM220.153 89.6583L218.845 86.1426C218.668 85.701 218.491 85.1533 218.314 84.4996C218.191 84.9943 218.032 85.542 217.82 86.1426L216.476 89.6583H220.153ZM229.414 89.7466V94.4636H228.088V83.1216H231.199C232.595 83.1216 233.62 83.3866 234.274 83.9166C234.946 84.4466 235.282 85.2593 235.282 86.3193C235.282 87.821 234.522 88.828 233.002 89.358L236.077 94.4636H234.522L231.782 89.7466H229.414ZM229.414 88.5983H231.217C232.154 88.5983 232.825 88.4216 233.267 88.0506C233.709 87.6796 233.921 87.1143 233.921 86.39C233.921 85.648 233.691 85.1003 233.249 84.7646C232.807 84.429 232.1 84.27 231.128 84.27H229.414V88.5983ZM250.164 88.669C250.164 90.5416 249.651 91.9726 248.626 92.962C247.619 93.9513 246.152 94.446 244.243 94.446H241.097V83.104H244.579C246.346 83.104 247.725 83.5986 248.697 84.5703C249.687 85.5596 250.164 86.92 250.164 88.669ZM248.767 88.722C248.767 87.238 248.396 86.125 247.654 85.383C246.912 84.641 245.816 84.2523 244.349 84.2523H242.422V93.3153H244.031C245.604 93.3153 246.788 92.9266 247.583 92.167C248.379 91.3896 248.767 90.2413 248.767 88.722ZM262.306 91.4426C262.306 92.4496 261.935 93.227 261.21 93.7746C260.486 94.34 259.496 94.605 258.259 94.605C256.915 94.605 255.873 94.4283 255.148 94.0926V92.8206C255.607 93.015 256.12 93.174 256.668 93.28C257.216 93.386 257.764 93.4566 258.294 93.4566C259.178 93.4566 259.832 93.2976 260.274 92.962C260.715 92.6263 260.945 92.167 260.945 91.5663C260.945 91.1776 260.857 90.8596 260.698 90.6123C260.539 90.365 260.273 90.1176 259.902 89.9056C259.531 89.6936 258.966 89.4463 258.223 89.1813C257.163 88.8103 256.403 88.351 255.961 87.8386C255.519 87.3263 255.289 86.6373 255.289 85.807C255.289 84.9236 255.625 84.2346 256.279 83.7223C256.933 83.21 257.799 82.945 258.895 82.945C260.026 82.945 261.069 83.157 262.006 83.5633L261.599 84.7116C260.662 84.323 259.743 84.1286 258.86 84.1286C258.153 84.1286 257.622 84.2876 257.216 84.5703C256.827 84.8706 256.633 85.2946 256.633 85.8246C256.633 86.2133 256.703 86.549 256.845 86.7963C256.986 87.0436 257.234 87.2733 257.569 87.4853C257.923 87.6973 258.435 87.927 259.16 88.1743C260.344 88.5983 261.175 89.0576 261.617 89.5346C262.076 90.0293 262.306 90.6653 262.306 91.4426Z" fill="#020203"/>
</svg>
