<svg width="40" height="33" viewBox="0 0 40 33" fill="none" xmlns="http://www.w3.org/2000/svg">
<path d="M40 4.01839C38.5281 4.67792 36.9466 5.12366 35.2866 5.32418C36.9811 4.29787 38.2822 2.67266 38.8948 0.736234C37.284 1.70221 35.5216 2.3828 33.6838 2.7486C32.1867 1.13697 30.0541 0.129761 27.6936 0.129761C23.1614 0.129761 19.4869 3.84281 19.4869 8.42239C19.4869 9.07244 19.5595 9.70529 19.6994 10.3124C12.8791 9.96644 6.83219 6.66502 2.78453 1.64776C2.07828 2.87255 1.67359 4.29723 1.67359 5.81681C1.67359 8.69397 3.1225 11.2321 5.32438 12.7193C4.02117 12.6781 2.74664 12.3224 1.60719 11.682C1.60672 11.7167 1.60672 11.7514 1.60672 11.7863C1.60672 15.8043 4.43547 19.1561 8.18953 19.9179C6.98107 20.25 5.71348 20.2986 4.48359 20.06C5.52781 23.3547 8.55859 25.7521 12.1495 25.8192C9.34094 28.0433 5.80234 29.3692 1.95766 29.3692C1.29516 29.3692 0.642031 29.3299 0 29.2533C3.63172 31.6062 7.94531 32.9791 12.5797 32.9791C27.6745 32.9791 35.9287 20.3427 35.9287 9.38413C35.9287 9.02444 35.9209 8.66681 35.905 8.31123C37.5116 7.13758 38.8983 5.68389 40 4.01839Z" fill="#55ACEE"/>
</svg>
