<svg width="40" height="40" viewBox="0 0 40 40" fill="none" xmlns="http://www.w3.org/2000/svg">
<path d="M19.9999 18.8889C21.5382 18.8889 23.042 18.4327 24.321 17.5781C25.6001 16.7235 26.597 15.5087 27.1857 14.0875C27.7744 12.6663 27.9284 11.1025 27.6283 9.59374C27.3282 8.085 26.5874 6.69913 25.4997 5.61139C24.4119 4.52365 23.0261 3.78289 21.5173 3.48278C20.0086 3.18267 18.4447 3.3367 17.0235 3.92538C15.6023 4.51406 14.3876 5.51096 13.533 6.79001C12.6783 8.06906 12.2222 9.57281 12.2222 11.1111C12.2222 13.1739 13.0416 15.1522 14.5002 16.6108C15.9588 18.0694 17.9372 18.8889 19.9999 18.8889ZM19.9999 5.55555C21.0987 5.55555 22.1728 5.88138 23.0864 6.49183C24.0001 7.10229 24.7121 7.96995 25.1326 8.98509C25.5531 10.0002 25.6631 11.1173 25.4488 12.1949C25.2344 13.2726 24.7053 14.2625 23.9283 15.0395C23.1514 15.8164 22.1615 16.3456 21.0838 16.5599C20.0061 16.7743 18.8891 16.6643 17.8739 16.2438C16.8588 15.8233 15.9911 15.1112 15.3807 14.1976C14.7702 13.284 14.4444 12.2099 14.4444 11.1111C14.4444 9.63768 15.0297 8.22461 16.0716 7.18274C17.1134 6.14087 18.5265 5.55555 19.9999 5.55555Z" fill="black"/>
<path d="M33.8557 27.0778C32.0738 25.1945 29.9265 23.6943 27.5452 22.6691C25.1638 21.6439 22.5983 21.1151 20.0057 21.1151C17.413 21.1151 14.8475 21.6439 12.4662 22.6691C10.0848 23.6943 7.93755 25.1945 6.15567 27.0778C5.76935 27.4904 5.55479 28.0347 5.55567 28.6V34.4444C5.55567 35.0338 5.78979 35.599 6.20654 36.0158C6.62329 36.4325 7.18852 36.6667 7.77789 36.6667H32.2223C32.8117 36.6667 33.3769 36.4325 33.7937 36.0158C34.2104 35.599 34.4446 35.0338 34.4446 34.4444V28.6C34.4484 28.0363 34.2379 27.4921 33.8557 27.0778ZM32.2223 34.4444H7.77789V28.5889C9.35259 26.9308 11.2482 25.6104 13.3494 24.7081C15.4506 23.8058 17.7134 23.3405 20.0001 23.3405C22.2868 23.3405 24.5496 23.8058 26.6508 24.7081C28.752 25.6104 30.6476 26.9308 32.2223 28.5889V34.4444Z" fill="black"/>
</svg>
